<?xml version="1.0" standalone="no"?><!DOCTYPE svg PUBLIC "-//W3C//DTD SVG 1.1//EN" "http://www.w3.org/Graphics/SVG/1.1/DTD/svg11.dtd"><svg class="icon" height="512" viewBox="0 0 1024 1024" version="1.1" xmlns="http://www.w3.org/2000/svg"><path d="M851.2 729.6l160 160c12.8 12.8 12.8 38.4 0 51.2-12.8 12.8-38.4 12.8-51.2 0l-160-160c-32 25.6-64 44.8-102.4 64-44.8 19.2-102.4 32-153.6 32-115.2 0-230.4-51.2-307.2-140.8-38.4-44.8 19.2-89.6 64-38.4 64 70.4 153.6 108.8 243.2 108.8 44.8 0 89.6-6.4 128-25.6 38.4-19.2 76.8-38.4 108.8-70.4 32-32 57.6-64 70.4-108.8 12.8-38.4 25.6-83.2 25.6-128s-6.4-83.2-25.6-121.6c-19.2-38.4-38.4-76.8-70.4-108.8-32-32-64-57.6-108.8-70.4-38.4-19.2-83.2-25.6-128-25.6-134.4 0-249.6 83.2-300.8 198.4-12.8 6.4-19.2 19.2-38.4 19.2-12.8 0-25.6-6.4-32-19.2-6.4-12.8-6.4-25.6 0-38.4C236.8 166.4 384 64 544 64c57.6 0 108.8 12.8 153.6 32 51.2 19.2 96 51.2 134.4 89.6 38.4 38.4 64 83.2 83.2 128 19.2 44.8 32 96 32 153.6 0 57.6-12.8 108.8-32 153.6-12.8 44.8-38.4 76.8-64 108.8zM19.2 576C12.8 576 0 569.6 0 556.8c0-12.8 12.8-19.2 19.2-19.2h166.4l96-166.4c6.4-12.8 19.2-12.8 32-6.4 6.4-6.4 6.4 0 6.4 0l96 153.6 44.8-51.2c6.4-6.4 25.6-6.4 32 0l6.4 6.4 57.6 108.8 70.4-288c0-12.8 12.8-19.2 25.6-19.2 6.4 0 6.4 0 12.8 6.4L768 384c6.4 6.4 6.4 25.6 0 32-6.4 6.4-25.6 6.4-32 0l-70.4-70.4-70.4 307.2c0 6.4-6.4 12.8-12.8 12.8-12.8 6.4-25.6 0-32-6.4L473.6 524.8l-44.8 44.8s0 6.4-6.4 6.4c-6.4 6.4-19.2 0-25.6-6.4L300.8 422.4 217.6 563.2c0 6.4-12.8 12.8-19.2 12.8H19.2z" /></svg>